<svg xmlns="http://www.w3.org/2000/svg" id="Layer_1" viewBox="48.19 40.86 183.24 115.81"><path d="m210.71,89.85c-3.38,0-5.33-1.44-5.33-3.82,0-2.23,1.51-3.53,4.46-4.03l8.42-1.3v1.3c0,4.68-3.02,7.85-7.56,7.85m19.01-1.87c-1.08,0-1.58-.65-1.58-2.02v-13.61c0-8.06-5.62-12.82-15.34-12.82-8.28,0-13.97,4.25-15.77,11.52l8.71,2.16c.58-3.53,3.24-5.62,6.91-5.62,3.46,0,5.62,1.66,5.62,4.25v.14c0,1.66-.94,2.66-2.74,2.95l-9.22,1.44c-6.84,1.08-10.8,4.68-10.8,10.15,0,6.62,4.39,10.44,11.95,10.44,5.18,0,9-1.66,11.45-5.04,1.08,2.81,3.53,4.18,7.27,4.18h5.26v-8.14h-1.73Zm-38.06-27.58h-9.86v35.71h9.86v-35.71Zm-30.76,26.14l-7.7-26.14h-11.3l12.46,35.71h12.89l12.46-35.71h-11.16l-7.63,26.14Zm-25.65.86c-2.95,0-4.61-1.37-4.61-3.89v-14.47h9.94v-8.64h-9.94v-11.09h-9.86v34.78c0,7.7,4.46,12.02,12.24,12.02h8.14v-8.71h-5.9Zm-37.65,2.45c-3.38,0-5.33-1.44-5.33-3.82,0-2.23,1.51-3.53,4.46-4.03l8.42-1.3v1.3c0,4.68-3.02,7.85-7.56,7.85m19.01-1.87c-1.08,0-1.58-.65-1.58-2.02v-13.61c0-8.06-5.62-12.82-15.34-12.82-8.28,0-13.97,4.25-15.77,11.52l8.71,2.16c.58-3.53,3.24-5.62,6.91-5.62,3.46,0,5.62,1.66,5.62,4.25v.14c0,1.66-.94,2.66-2.74,2.95l-9.22,1.44c-6.84,1.08-10.8,4.68-10.8,10.15,0,6.62,4.39,10.44,11.95,10.44,5.18,0,9-1.66,11.45-5.04,1.08,2.81,3.53,4.18,7.27,4.18h5.26v-8.14h-1.73Zm-57.89-42.7h-10.51v50.83h32.33v-9.86h-21.82v-40.97Z"/><rect x="181.51" y="42.97" width="10.37" height="10.67" transform="translate(20.52 146.16) rotate(-45)"/><path d="m65.22,150.12v5.76h-7.85c-5.69,0-9.15-3.46-9.15-9v-37.15h6.26v11.09h10.44v5.47h-10.44v20.52c0,2.02,1.44,3.31,3.67,3.31h7.06Z"/><path d="m90.71,120.81v6.26h-5.4c-5.11,0-8.42,4.32-8.42,11.16v17.64h-6.26v-35.07h5.26l1.01,6.26c1.08-3.74,4.54-6.26,8.93-6.26h4.9Z"/><path d="m125.92,150.41v5.47h-3.31c-3.46,0-5.76-1.8-6.26-4.9-2.59,3.82-6.7,5.69-12.24,5.69-7.42,0-12.1-3.96-12.1-10.08,0-4.97,4.03-8.79,10.44-9.72l11.02-1.73c1.73-.29,2.74-1.44,2.74-3.1v-.07c0-3.96-3.17-6.7-7.85-6.7-4.97,0-8.71,2.88-9.29,7.13l-5.54-1.3c1.37-6.84,7.06-11.09,14.91-11.09,8.64,0,14.04,4.75,14.04,12.24v16.06c0,1.37.65,2.09,1.94,2.09h1.51Zm-9.72-8.93v-2.45l-11.74,1.8c-3.74.5-6.19,2.66-6.19,5.54,0,3.24,2.88,5.47,7.27,5.47,6.41,0,10.66-4.1,10.66-10.37Z"/><path d="m153.5,120.81h7.06l-13.61,35.07h-7.99l-13.68-35.07h7.13l10.58,28.95,10.51-28.95Z"/><path d="m194.4,140.54h-27.79c.79,6.62,5.04,10.73,11.45,10.73,4.9,0,9-2.74,10.51-7.06l4.97,2.16c-2.3,6.12-8.5,10.3-15.48,10.3-5.26,0-9.5-1.66-12.75-5.04-3.24-3.38-4.82-7.78-4.82-13.32s1.58-9.87,4.75-13.25c3.17-3.38,7.34-5.04,12.53-5.04s9,1.66,12.03,4.9c3.1,3.24,4.61,7.49,4.61,12.75v2.88Zm-27.87-4.03h21.82c-.22-6.84-4.32-11.09-10.73-11.09s-10.44,4.25-11.09,11.09Z"/><path d="m199.53,155.88v-52.35h6.26v52.35h-6.26Z"/></svg>
